<svg width="42px" height="48px" fill="none" stroke="#000000" stroke-width="0.7" class="skeleton-logo">
            <!--TOP ROUND-BIG CIRCLE-->
    <path d="M20.935,4.165 A 2.085 2.085 0 0 1 20.8355,8.3355"/>
    <path d="M20.935,4.165 A 2.085 2.085 0 1 0 20.8355,8.3355"/>
               
            <!--MID ROUND-SMALL CIRCLE-->
    <path d="M20.835,23.96 A 1.04 1.04 0 1 0 20.8355,26.04"/>
    <path d="M20.835,23.96 A 1.04 1.04 0 1 1 20.8355,26.04"/>
               
            <!--TOP LONG ARC-->
    <path d="M7.29,18.75 A 14.585 14.585 0 0 1 34.375,18.75"/>
               
            <!-- BOTTOM 2 FEET-->
    <path d="M7.29,31.25 A 14.585 14.585 0 0 0 16.665,39.75"/> 
    <path d="M25,39.75 A 14.585 14.585 0 0 0 34.375,31.25"/>
            
            <!-- TORSO -->
    <path d="M12.5,12.3 A 16.665 16.665 0 0 0 18.75,23.335"/>
    <path d="M29.165,12.165 A 16.665 16.665 0 0 1 22.915,23.335"/>
    <path d="M18.75,26.665 A 16.665 16.665 0 0 0 12.5,37.85"/>
    <path d="M22.915,26.665 A 16.665 16.665 0 0 1 29.165,37.75"/>
           
           <!--INNER RIBS-->
                <!-- lines -->
    <path d="M19.79,22.915 v -10.835"/>
    <path d="M21.875,22.915 v -10.835"/>
                <!-- arcs -->
    <path d="M19.79,12.5 A 12.5 12.5 0 0 0 14.165,14.165"/>
    <path d="M21.875,12.5 A 12.5 12.5 0 0 1 27.5,14.335"/>
               
    <path d="M21.875,15.835 A 9.165 9.165 0 0 1 25.835,16.8"/>
    <path d="M19.79,15.835 A 9.165 9.165 0 0 0 15.835,16.8"/>
               
    <path d="M19.79,19.165 A 5.835 5.835 0 0 0 17.165,20"/>
    <path d="M21.875,19.165 A 5.835 5.835 0 0 1 24.165,20"/>
               
</svg>               

  
