
<svg version="1.1"
     width="1.785em" height="1.3em"
     xmlns="http://www.w3.org/2000/svg"
>
<!-- named: Add "Laz Studios &trade;" for hero banner-->
    <path id="game-pad-v1"
          stroke="#B403A5"
          fill="none"
          stroke-linecap="round"
          stroke-linejoin="round"
          stroke-width="0.6"
          d="
            M2,8
            L2,16
            C2,20 7,20 8,16
            L10,10
            L12,10
            L12,7
            C15.5,8.5 15.5,3 12,5
            L12,2 7.8,2
            C3.4,-1 -1,3.4 2,8
          "
    />
    <circle id="joystick"
            stroke-width="0.6"
            stroke="blue"
            fill="none"
             stroke-linecap="round"
            cx="5" cy="5" r="3"
    />
    <polygon id="top-joy"
             stroke-width="0.4"
             stroke="#820000"
             fill="none"
             stroke-linecap="round"
             points="5,4.5 6,3 4,3"
    />
    <polygon id="bottom-joy"
             stroke-width="0.4"
             stroke="#028282"
             fill="none"
             stroke-linecap="round"
             points="5,5.5 6,7 4,7"
    />
    <polygon id="left-joy"
             stroke-width="0.4"
             stroke="#000082"
             fill="none"
             stroke-linecap="round"
             points="4.5,5 3,4 3,6"
    />
    <polygon id="right-joy"
             stroke-width="0.4"
             stroke="#828200"
             fill="none"
             stroke-linecap="round"
             points="5.5,5 7,4 7,6"
    />

    <path id="code-box"
          stroke="#B40072"
          fill="none"
          stroke-linecap="round"
          stroke-linejoin="round"
          stroke-width="0.6"
          d="
            M15.8,8.2
            L18.5,5.5
            L27,14
            L26,15
            L26,14
            L18,14
            L18,18
            L12,12
            L14.5,9.5
            C16,14 20,9.5 15.8,8.2
          "
    />
    <path id="code-lt"
          stroke="#30B400"
          fill="none"
          stroke-linecap="round"
          stroke-linejoin="round"
          stroke-width="0.8"
          d="
            M21.5,15.5
            L19.5,16.5
            L20.5,17
          "
    />
    <path id="code-slash"
          stroke="#B46700"
          fill="none"
          stroke-linecap="round"
          stroke-linejoin="round"
          stroke-width="0.8"
          d="
            M23,15
            L21,18
          "
    />
    <path id="code-gt"
          stroke="#7600B4"
          fill="none"
          stroke-linecap="round"
          stroke-linejoin="round"
          stroke-width="0.8"
          d="
            M23.5,16
            L24.5,16.5
            L22.5,17.5
          "
    />

<!--    <text id="svg-text"-->
<!--          fill="none"-->
<!--          stroke="black"-->
<!--          x="28" y="12" dx="0" dy="4.5"-->
<!--          textLength="4.1rem"-->
<!--          lengthAdjust="spacingAndGlyphs"-->
<!--          font-size="1rem"-->
<!--          font-family="Playwrite AU SA"-->
<!--    >-->
<!--        Laz Studios-->
<!--    </text>-->
</svg>